# xmcd CD database file
#
# Track frame offsets:
#	150
#	12402
#	20307
#	33190
#	46712
#	59000
#	72440
#	82425
#	93592
#	104545
#
# Disc length: 1553 seconds
#
# Revision: 0
# Processed by: cddbd v1.4PL0 Copyright (c) Steve Scherf et al.
# Submitted via: CDex 1.40Release
#
DISCID=85060f0a
DTITLE=Various Artist - Country Music Cavalcade - Midnight In Memphis
DYEAR=1900
DGENRE=Country
TTITLE0=Dark Moon
TTITLE1=Lonely Weekends
TTITLE2=Take Me Home Country Roads
TTITLE3=Right Or Wrong
TTITLE4=It's Too Late
TTITLE5=Peace In The Valley
TTITLE6=Moments To Remember
TTITLE7=Mona Lisa
TTITLE8=Husbands and Wives
TTITLE9=Teen Angel
EXTD=ID3G: 2
EXTT0=
EXTT1=
EXTT2=
EXTT3=
EXTT4=
EXTT5=
EXTT6=
EXTT7=
EXTT8=
EXTT9=
PLAYORDER=
